<svg width="24" height="24" viewBox="0 0 24 24" fill="none" xmlns="http://www.w3.org/2000/svg">
  <path
    d="M12 2C6.486 2 2 6.141 2 11.254c0 1.811.53 3.502 1.443 4.949L2 22l6.002-1.86c1.355.528 2.752.798 3.998.798 5.514 0 9.999-4.141 9.999-9.254C22 6.141 17.514 2 12 2Zm4.992 13.08c-.206.59-1.21 1.134-1.674 1.205-.43.066-.967.094-1.558-.1-.36-.116-.82-.267-1.41-.524-2.48-1.075-4.095-3.598-4.217-3.767-.12-.17-1.008-1.349-1.008-2.575 0-1.225.637-1.828.864-2.082.226-.255.49-.319.654-.319.163 0 .327.004.471.009.152.006.357-.058.558.426.206.497.7 1.718.76 1.842.06.123.098.267.018.437-.08.17-.12.267-.24.409-.12.141-.253.314-.362.422-.12.117-.245.245-.105.481.14.235.621 1.01 1.335 1.637.92.82 1.694 1.072 1.93 1.192.235.12.373.1.513-.061.14-.161.593-.692.75-.929.156-.235.313-.197.53-.12.216.078 1.36.64 1.595.755.235.117.39.176.447.274.058.098.058.569-.148 1.16Z"
    fill="#25D366"
  />
</svg>
